<svg xmlns="http://www.w3.org/2000/svg" viewBox="0 0 64 64" xml:space="preserve"><defs><style>.circle{fill:#596a95;}.circle-bottom{fill:#53628a;}.ring{fill:#f8c33f;}</style></defs><g><g><path class="circle" d="M33.771,35.862c7.334-2.89,12.935-5.864,16.769-8.369C48.49,18.49,40.442,11.77,30.82,11.77    c-11.173,0-20.23,9.058-20.23,20.23c0,3.463,0.871,6.721,2.404,9.57C18.293,41.029,25.939,38.947,33.771,35.862z"/><path class="circle-bottom" d="M35.213,39.521c-7.039,2.772-13.824,4.825-19.484,5.948c3.705,4.148,9.092,6.762,15.091,6.762    c11.167,0,20.221-9.048,20.229-20.215C45.714,35.044,39.694,37.755,35.213,39.521z"/></g><path class="ring" d="M61.88,19.595c-0.064-0.163-0.162-0.31-0.274-0.448c-1.431-1.775-6.711-1.747-13.953-0.211l0.748,1.054   c4.919-0.802,8.417-0.62,9.475,0.702c0.096,0.121,0.18,0.248,0.235,0.388c1.283,3.26-9.366,10.507-23.787,16.187   C20.659,42.648,8.517,44.69,6.19,42.115c-0.128-0.142-0.234-0.295-0.301-0.465c-0.518-1.313,0.905-3.274,3.729-5.52l-0.181-1.516   c-5.206,3.471-8.074,6.601-7.318,8.52c0.076,0.193,0.195,0.366,0.34,0.527c2.65,2.955,16.552,0.619,32.2-5.545   C51.161,31.617,63.348,23.324,61.88,19.595z"/></g></svg>