<svg xmlns="http://www.w3.org/2000/svg" viewBox="0 0 409.8 411.6"><defs><style>.a{fill:#386895;}.b{fill:#7f7f7f;}.c{fill:#bababa;}.d{fill:#273b7a;}.e{fill:#d7d7d7;}.f{fill:#eeeeed;}.g{fill:#d48b08;}.h{fill:#fec51c;}.i{fill:#c5c5c5;}.j{fill:#bbb;}.k{fill:#eee;}.l{fill:#707070;}.m{fill:#4c4c4c;}.n{fill:gray;}.o{fill:#bababb;}</style></defs><circle class="a" cx="205" cy="204.8" r="204.8"/><path class="a" d="M1164.6,524.18v32.74a20.16,20.16,0,0,0-.87,2.77c-1.43,8.41-2.81,16.83-4.2,25.25a48.1,48.1,0,0,1-4-3.21q-50.7-50.64-101.37-101.29a32.85,32.85,0,0,0-4.73-3.33l.14,0-1.24-1.68a86.12,86.12,0,0,0-31.49-28C998.61,438,979,438.21,959.35,439c-13.83-.14-27.63-.6-41.24,2.94-29,7.55-54,34.82-57.67,64.41-1.29,10.37-1,20.94-1.37,31.42-13.13,4.07-20.1,11.86-20.2,23.38-.15,18.59,0,37.17,0,55.76-3.15,6-5.82,12.18-5.81,19.18q.07,31.81.07,63.65a28.78,28.78,0,0,1-3.32-2.11c-68.75-57.32-92.35-150.46-59.27-233.84,36.5-92,136.79-145,233.18-123.34,84.12,18.93,145.83,85.28,158.72,170.64C1163.14,515.45,1163.89,519.81,1164.6,524.18Z" transform="translate(-755.8 -333)"/><path class="b" d="M1030.3,732.43c-17,5.94-34.4,10.15-52.43,11.45a6.18,6.18,0,0,0-1.72.72H959.38l.15-61.25.08-.07c18.63,0,37.26-.17,55.88,0,8.57.06,14.75,5.92,14.87,14.06C1030.53,709,1030.34,720.72,1030.3,732.43Z" transform="translate(-755.8 -333)"/><path class="c" d="M959.53,683.35l-.15,61.25H945c-5.06-.69-10.22-1-15.18-2.14-13.33-3.09-26.58-6.55-39.86-9.86,0-11.15-.06-22.3,0-33.44,0-9.61,5.52-15.77,15.07-15.89C923.18,683.05,941.36,683.3,959.53,683.35Z" transform="translate(-755.8 -333)"/><path class="d" d="M1159.53,584.94c-3.62,18-10.21,35-18.79,51.17A204.67,204.67,0,0,1,1091.42,697c-1.12.95-2.31,1.78-3.47,2.67-.08-18.75-.27-37.5-.19-56.25,0-9.44-1.19-18.48-6.25-26.68,0-17.68-.46-35.38.21-53,.47-12.58-8.3-23.87-20.11-25.9,0-1.32-.11-2.65,0-4,.88-19.95-1.39-39.22-12.11-56.69a32.85,32.85,0,0,1,4.73,3.33q50.73,50.61,101.37,101.29A48.1,48.1,0,0,0,1159.53,584.94Z" transform="translate(-755.8 -333)"/><path class="e" d="M1049.45,477.11c10.72,17.47,13,36.74,12.11,56.69-.06,1.33,0,2.66,0,4-1,4.91-1.6,9.92-3,14.71-5.3,18.07-16.87,31.1-33.12,40.2-11.46,5.54-23.59,7.57-36.24,7.33-9.94-.18-19.9,0-29.84,0q0-8,.1-16c8,0,16,0,23.94-.08a57.5,57.5,0,0,0,23.93-5.3c24.53-11.43,37.63-36.89,33.39-63.67-2.61-16.53-11.31-20.74-24.18-20.46-19,.42-38.05.08-57.07.06L959.35,439c19.69-.77,39.26-1,57.51,8.46a86.12,86.12,0,0,1,31.49,28l1.24,1.68Z" transform="translate(-755.8 -333)"/><path class="f" d="M959.35,439l.16,55.65v.29c-20.22,0-40.44-.22-60.66,0-9.54.09-16,5.75-17.94,15.06a98,98,0,0,0-1.6,11.83,57.63,57.63,0,0,0,42.48,60c12.44,3.29,25.11,1.94,37.72,2l0,.28q0,8-.1,16l.07.06c-8.5,0-17-.17-25.5-.13-13.25,0-26.22-1.23-38.34-7.18-6.12-4.57-12.83-8.55-18.25-13.85-11.42-11.18-16.82-25.41-18.31-41.21.41-10.48.08-21,1.37-31.42,3.71-29.59,28.64-56.86,57.67-64.41C931.72,438.38,945.52,438.84,959.35,439Z" transform="translate(-755.8 -333)"/><path class="g" d="M959.51,494.63c19,0,38,.36,57.07-.06,12.87-.28,21.57,3.93,24.18,20.46,4.24,26.78-8.86,52.24-33.39,63.67a57.5,57.5,0,0,1-23.93,5.3c-8,.09-16,.06-23.94.08l0-.28V494.63Z" transform="translate(-755.8 -333)"/><path class="b" d="M1025.48,592.69c5.2,1.1,10.39,2.18,15.58,3.3a17.33,17.33,0,0,1,2.16.76c-12.82,13.41-28.56,20.38-47.05,20.78-12.19.26-24.4,0-36.6,0h-.06q0-8.68,0-17.37l-.07-.06c9.94,0,19.9-.22,29.84,0C1001.89,600.26,1014,598.23,1025.48,592.69Z" transform="translate(-755.8 -333)"/><path class="h" d="M959.52,494.92V583.8c-12.61-.1-25.28,1.25-37.72-2a57.63,57.63,0,0,1-42.48-60,98,98,0,0,1,1.6-11.83c1.93-9.31,8.4-15,17.94-15.06C919.08,494.7,939.3,494.89,959.52,494.92Z" transform="translate(-755.8 -333)"/><path class="i" d="M959.47,600.12q0,8.68,0,17.37c-16-.35-32.18,1.66-48.12-1.46-12.6-2.46-23.33-8.62-32.58-17.44a5.85,5.85,0,0,1-.87-1.73c5.2-1.07,10.4-2.12,15.6-3.22a12.28,12.28,0,0,0,2.09-.83c12.12,6,25.09,7.23,38.34,7.18C942.47,600,951,600.07,959.47,600.12Z" transform="translate(-755.8 -333)"/><path class="j" d="M959.61,683.28q0-32.89,0-65.8c12.2,0,24.41.31,36.6,0,18.49-.4,34.23-7.37,47.05-20.78l1.55.16.06,129.24-14.53,6.28c0-11.71.23-23.42.06-35.13-.12-8.14-6.3-14-14.87-14.06C996.87,683.11,978.24,683.25,959.61,683.28Z" transform="translate(-755.8 -333)"/><path class="k" d="M875.65,597l2.29-.17a5.85,5.85,0,0,0,.87,1.73c9.25,8.82,20,15,32.58,17.44,15.94,3.12,32.08,1.11,48.12,1.46h.06q0,32.89,0,65.8l-.08.07c-18.17-.05-36.35-.3-54.52-.08-9.55.12-15,6.28-15.07,15.89,0,11.14,0,22.29,0,33.44l-14.43-6.39q0-10.56,0-21.13Q875.6,651.05,875.65,597Z" transform="translate(-755.8 -333)"/><path class="l" d="M858,601.72c-6.54,2.43-11.77,6.66-16.27,11.9l-2.79,3.27c0-18.59-.19-37.17,0-55.76.1-11.52,7.07-19.31,20.2-23.38,1.49,15.8,6.89,30,18.31,41.21,5.42,5.3,12.13,9.28,18.25,13.85a12.28,12.28,0,0,1-2.09.83c-5.2,1.1-10.4,2.15-15.6,3.22l-2.29.17Z" transform="translate(-755.8 -333)"/><path class="m" d="M1062.38,601.56l-17.61-4.65-1.55-.16a17.33,17.33,0,0,0-2.16-.76c-5.19-1.12-10.38-2.2-15.58-3.3,16.25-9.1,27.82-22.13,33.12-40.2,1.41-4.79,2-9.8,3-14.71,11.81,2,20.58,13.32,20.11,25.9-.67,17.66-.2,35.36-.21,53C1076.33,610.16,1070.45,604.48,1062.38,601.56Z" transform="translate(-755.8 -333)"/><path class="n" d="M1062.38,601.56q-.06,35.93-.12,71.84c0,14.64,0,29.28,0,43.91l-17.46,8.84-.06-129.24Z" transform="translate(-755.8 -333)"/><path class="c" d="M875.65,597q-.06,54-.1,108.05,0,10.56,0,21.13l-18.39-9.56a13.13,13.13,0,0,0,.89-3.31q0-55.82-.07-111.62Z" transform="translate(-755.8 -333)"/><path class="k" d="M857.15,716.65c-8.8-4.5-17.26-9.49-24-16.93q0-31.83-.07-63.65c0-7,2.66-13.15,5.81-19.18l2.79-3.27c4.5-5.24,9.73-9.47,16.27-11.9q.06,55.8.07,111.62A13.13,13.13,0,0,1,857.15,716.65Z" transform="translate(-755.8 -333)"/><path class="o" d="M1081.51,616.72c5.06,8.2,6.29,17.24,6.25,26.68-.08,18.75.11,37.5.19,56.25l-25.66,17.66c0-14.63,0-29.27,0-43.91q0-35.91.12-71.84C1070.45,604.48,1076.33,610.16,1081.51,616.72Z" transform="translate(-755.8 -333)"/></svg>